# Blender v2.78 (sub 0) OBJ File: 'ЮНИТИ ОРИЕНТАЦИЯ ОБ.ЕКТВО.blend'
# www.blender.org
mtllib Scoop.mtl
o Sphere
v -0.086525 -0.266296 -0.000000
v -0.164580 -0.226525 -0.000000
v -0.150351 -0.226525 -0.066941
v -0.079044 -0.266296 -0.035193
v -0.266296 -0.086525 -0.000000
v -0.280000 0.000000 0.000000
v -0.255793 0.000000 -0.113886
v -0.243273 -0.086525 -0.108312
v 0.000000 -0.280000 -0.000000
v -0.226525 -0.164580 -0.000000
v -0.206941 -0.164580 -0.092136
v -0.110125 -0.226525 -0.122307
v -0.057896 -0.266296 -0.064300
v -0.187357 0.000000 -0.208081
v -0.178187 -0.086525 -0.197896
v -0.151575 -0.164580 -0.168341
v -0.070000 -0.164580 -0.215438
v -0.050858 -0.226525 -0.156525
v -0.026737 -0.266296 -0.082290
v -0.086525 0.000000 -0.266296
v -0.082290 -0.086525 -0.253262
v 0.023678 -0.164580 -0.225284
v 0.017203 -0.226525 -0.163678
v 0.009044 -0.266296 -0.086051
v 0.029268 0.000000 -0.278466
v 0.027836 -0.086525 -0.264837
v 0.043263 -0.266296 -0.074933
v 0.133148 -0.086525 -0.230619
v 0.113263 -0.164580 -0.196176
v 0.082290 -0.226525 -0.142530
v 0.140000 0.000000 -0.242487
v 0.226525 0.000000 -0.164580
v 0.215438 -0.086525 -0.156525
v 0.070000 -0.266296 -0.050858
v 0.183262 -0.164580 -0.133148
v 0.133148 -0.226525 -0.096738
v 0.160983 -0.226525 -0.034218
v 0.084634 -0.266296 -0.017989
v 0.273881 0.000000 -0.058215
v 0.260477 -0.086525 -0.055366
v 0.221575 -0.164580 -0.047097
v 0.160983 -0.226525 0.034218
v 0.084634 -0.266296 0.017989
v 0.273881 -0.000000 0.058215
v 0.260477 -0.086525 0.055366
v 0.221575 -0.164580 0.047097
v 0.183262 -0.164580 0.133148
v 0.133148 -0.226525 0.096738
v 0.070000 -0.266296 0.050858
v 0.226525 -0.000000 0.164580
v 0.215438 -0.086525 0.156525
v 0.133148 -0.086525 0.230619
v 0.113263 -0.164580 0.196176
v 0.082290 -0.226525 0.142530
v 0.043263 -0.266296 0.074933
v 0.140000 -0.000000 0.242487
v 0.009044 -0.266296 0.086051
v 0.027836 -0.086525 0.264837
v 0.023678 -0.164580 0.225284
v 0.017203 -0.226525 0.163678
v 0.029268 -0.000000 0.278466
v -0.086525 -0.000000 0.266296
v -0.082290 -0.086525 0.253262
v -0.026737 -0.266296 0.082290
v -0.070000 -0.164580 0.215438
v -0.050858 -0.226525 0.156525
v -0.110125 -0.226525 0.122307
v -0.057896 -0.266296 0.064300
v -0.187356 -0.000000 0.208081
v -0.178187 -0.086525 0.197896
v -0.151575 -0.164580 0.168341
v -0.206941 -0.164580 0.092136
v -0.150351 -0.226525 0.066941
v -0.079044 -0.266296 0.035193
v -0.255793 -0.000000 0.113886
v -0.243273 -0.086525 0.108312
v -0.078269 -0.242487 -0.000000
v -0.071502 -0.242487 -0.031835
v -0.136514 -0.206385 -0.060780
v -0.149433 -0.206385 -0.000000
v -0.242281 -0.078887 -0.000000
v -0.221335 -0.078887 -0.098545
v -0.233055 0.003942 -0.103763
v -0.255110 0.003942 0.000000
v 0.000000 -0.254800 -0.000000
v -0.205963 -0.150012 -0.000000
v -0.188157 -0.150012 -0.083773
v -0.052372 -0.242487 -0.058166
v -0.099991 -0.206385 -0.111051
v -0.162118 -0.078887 -0.180050
v -0.170703 0.003942 -0.189585
v -0.137816 -0.150012 -0.153060
v -0.046177 -0.206385 -0.142119
v -0.063646 -0.150012 -0.195883
v -0.024187 -0.242487 -0.074439
v -0.074869 -0.078887 -0.230423
v -0.078834 0.003942 -0.242625
v 0.015621 -0.206385 -0.148614
v 0.021529 -0.150012 -0.204835
v 0.008182 -0.242487 -0.077840
v 0.025326 -0.078887 -0.240955
v 0.026667 0.003942 -0.253713
v 0.039135 -0.242487 -0.067783
v 0.102982 -0.150012 -0.178369
v 0.121141 -0.078887 -0.209822
v 0.074717 -0.206385 -0.129413
v 0.127556 0.003942 -0.220933
v 0.196010 -0.078887 -0.142410
v 0.206389 0.003942 -0.149951
v 0.063321 -0.242487 -0.046005
v 0.166628 -0.150012 -0.121062
v 0.120894 -0.206385 -0.087835
v 0.076559 -0.242487 -0.016274
v 0.146168 -0.206385 -0.031070
v 0.236987 -0.078887 -0.050373
v 0.249536 0.003942 -0.053041
v 0.201462 -0.150012 -0.042823
v 0.076559 -0.242487 0.016274
v 0.146168 -0.206385 0.031070
v 0.236987 -0.078887 0.050373
v 0.249536 0.003942 0.053041
v 0.201462 -0.150012 0.042823
v 0.120894 -0.206385 0.087835
v 0.166628 -0.150012 0.121062
v 0.063321 -0.242487 0.046005
v 0.196010 -0.078887 0.142410
v 0.206389 0.003942 0.149951
v 0.102981 -0.150012 0.178369
v 0.121141 -0.078887 0.209822
v 0.074717 -0.206385 0.129413
v 0.039135 -0.242487 0.067783
v 0.127556 0.003942 0.220933
v 0.008182 -0.242487 0.077840
v 0.021529 -0.150012 0.204834
v 0.025326 -0.078887 0.240954
v 0.015621 -0.206385 0.148614
v 0.026667 0.003942 0.253713
v -0.074869 -0.078887 0.230423
v -0.078834 0.003942 0.242625
v -0.024187 -0.242487 0.074439
v -0.063646 -0.150012 0.195883
v -0.046177 -0.206385 0.142119
v -0.052372 -0.242487 0.058165
v -0.099991 -0.206385 0.111050
v -0.162118 -0.078887 0.180050
v -0.170702 0.003942 0.189584
v -0.137816 -0.150012 0.153060
v -0.136514 -0.206385 0.060780
v -0.188157 -0.150012 0.083773
v -0.071502 -0.242487 0.031835
v -0.221335 -0.078887 0.098545
v -0.233055 0.003942 0.103763
vt 0.1287 0.4846
vt 0.1287 0.5275
vt 0.1655 0.5196
vt 0.1481 0.4805
vt 0.5086 0.5200
vt 0.4611 0.5200
vt 0.4611 0.5825
vt 0.5086 0.5795
vt 0.1287 0.4371
vt 0.5515 0.5200
vt 0.5515 0.5706
vt 0.1287 0.5615
vt 0.1793 0.5507
vt 0.1959 0.4975
vt 0.1641 0.4689
vt 0.4611 0.6343
vt 0.5086 0.6287
vt 0.5515 0.6124
vt 0.2212 0.5203
vt 0.2471 0.4755
vt 0.2147 0.4650
vt 0.1739 0.4517
vt 0.2273 0.6149
vt 0.2323 0.5674
vt 0.1769 0.5674
vt 0.1746 0.6149
vt 0.2127 0.6578
vt 0.1679 0.6578
vt 0.2525 0.4240
vt 0.2186 0.4276
vt 0.1760 0.4321
vt 0.1133 0.5674
vt 0.1141 0.6149
vt 0.1164 0.6578
vt 0.1699 0.4133
vt 0.0563 0.6149
vt 0.0672 0.6578
vt 0.2365 0.3748
vt 0.2070 0.3919
vt 0.0525 0.5674
vt 0.0050 0.5674
vt 0.0111 0.6149
vt 0.1567 0.3986
vt 0.0288 0.6578
vt 0.2019 0.3364
vt 0.1819 0.3639
vt 0.1475 0.3486
vt 0.1386 0.3906
vt 0.4121 0.1274
vt 0.4597 0.1230
vt 0.4597 0.1814
vt 0.4121 0.1830
vt 0.3693 0.1403
vt 0.3693 0.1875
vt 0.1546 0.3154
vt 0.1099 0.3486
vt 0.1189 0.3906
vt 0.4597 0.2454
vt 0.4121 0.2438
vt 0.3693 0.2393
vt 0.1029 0.3154
vt 0.0556 0.3364
vt 0.0756 0.3639
vt 0.1008 0.3986
vt 0.4597 0.3038
vt 0.4121 0.2994
vt 0.3693 0.2865
vt 0.5728 0.3095
vt 0.5905 0.3524
vt 0.5453 0.3524
vt 0.5344 0.3095
vt 0.0210 0.3748
vt 0.0505 0.3919
vt 0.0876 0.4133
vt 0.5966 0.3999
vt 0.5491 0.3999
vt 0.0815 0.4321
vt 0.4875 0.3524
vt 0.4852 0.3095
vt 0.0050 0.4240
vt 0.0388 0.4276
vt 0.4882 0.3999
vt 0.4246 0.3999
vt 0.4270 0.3524
vt 0.0835 0.4517
vt 0.4337 0.3095
vt 0.0104 0.4755
vt 0.0428 0.4650
vt 0.0616 0.4975
vt 0.0934 0.4689
vt 0.3693 0.3999
vt 0.3743 0.3524
vt 0.3889 0.3095
vt 0.0363 0.5203
vt 0.0781 0.5507
vt 0.0920 0.5196
vt 0.1094 0.4805
vt 0.5086 0.4113
vt 0.4611 0.4057
vt 0.4611 0.4574
vt 0.5086 0.4605
vt 0.5515 0.4275
vt 0.5515 0.4694
vt 0.1452 0.1028
vt 0.1277 0.1065
vt 0.1118 0.0708
vt 0.1452 0.0637
vt 0.4083 0.5098
vt 0.4083 0.4557
vt 0.4538 0.4528
vt 0.4538 0.5098
vt 0.1452 0.1458
vt 0.3693 0.5098
vt 0.3693 0.4638
vt 0.0992 0.0425
vt 0.1452 0.0327
vt 0.1132 0.1170
vt 0.0842 0.0909
vt 0.4083 0.4109
vt 0.4538 0.4057
vt 0.3693 0.4258
vt 0.0611 0.0701
vt 0.0671 0.1204
vt 0.0376 0.1109
vt 0.1043 0.1325
vt 0.4701 0.1621
vt 0.5181 0.1621
vt 0.5159 0.2076
vt 0.4654 0.2076
vt 0.4835 0.1230
vt 0.5242 0.1230
vt 0.0636 0.1544
vt 0.0327 0.1576
vt 0.1024 0.1503
vt 0.5731 0.1621
vt 0.5738 0.2076
vt 0.5710 0.1230
vt 0.1080 0.1673
vt 0.6157 0.1230
vt 0.6257 0.1621
vt 0.0741 0.1868
vt 0.0472 0.2024
vt 0.6292 0.2076
vt 0.6668 0.1621
vt 0.6726 0.2076
vt 0.1199 0.1806
vt 0.6507 0.1230
vt 0.0969 0.2122
vt 0.0787 0.2373
vt 0.1363 0.1879
vt 0.1281 0.2261
vt 0.2851 0.6610
vt 0.2851 0.6104
vt 0.2396 0.6119
vt 0.2396 0.6651
vt 0.3241 0.6493
vt 0.3241 0.6063
vt 0.1217 0.2565
vt 0.1541 0.1879
vt 0.1623 0.2261
vt 0.2851 0.5551
vt 0.2396 0.5536
vt 0.3241 0.5592
vt 0.1687 0.2565
vt 0.1934 0.2122
vt 0.2117 0.2373
vt 0.1705 0.1806
vt 0.2851 0.5045
vt 0.2396 0.5004
vt 0.3241 0.5163
vt 0.4873 0.2979
vt 0.5222 0.2979
vt 0.5123 0.2589
vt 0.4711 0.2589
vt 0.2163 0.1868
vt 0.2432 0.2024
vt 0.1824 0.1673
vt 0.5087 0.2134
vt 0.4654 0.2134
vt 0.1879 0.1503
vt 0.5670 0.2979
vt 0.5649 0.2589
vt 0.2268 0.1544
vt 0.2577 0.1576
vt 0.5641 0.2134
vt 0.6199 0.2589
vt 0.6221 0.2134
vt 0.1861 0.1325
vt 0.6137 0.2979
vt 0.2233 0.1204
vt 0.2528 0.1109
vt 0.1771 0.1170
vt 0.2062 0.0909
vt 0.6678 0.2589
vt 0.6726 0.2134
vt 0.6545 0.2979
vt 0.2293 0.0701
vt 0.1786 0.0708
vt 0.1912 0.0425
vt 0.1627 0.1065
vt 0.4083 0.6087
vt 0.4083 0.5639
vt 0.4538 0.5668
vt 0.4538 0.6140
vt 0.3693 0.5939
vt 0.3693 0.5558
vt 0.0437 0.0559
vt 0.0954 0.0183
vt 0.1010 0.0308
vt 0.0538 0.0650
vt 0.0117 0.1113
vt 0.0247 0.1155
vt 0.0050 0.1749
vt 0.0186 0.1734
vt 0.0248 0.2357
vt 0.0366 0.2289
vt 0.0676 0.2832
vt 0.0756 0.2722
vt 0.1260 0.3092
vt 0.1288 0.2959
vt 0.1899 0.3092
vt 0.1871 0.2959
vt 0.2483 0.2832
vt 0.2403 0.2722
vt 0.2911 0.2357
vt 0.2793 0.2289
vt 0.3109 0.1749
vt 0.2973 0.1734
vt 0.3042 0.1113
vt 0.2912 0.1155
vt 0.2722 0.0559
vt 0.2621 0.0650
vt 0.2205 0.0183
vt 0.2149 0.0308
vt 0.1580 0.0050
vt 0.1580 0.0187
vn -0.3087 -0.9512 0.0000
vn -0.5874 -0.8093 -0.0000
vn -0.5366 -0.8093 -0.2389
vn -0.2820 -0.9512 -0.1256
vn -0.9510 -0.3093 -0.0000
vn -0.8028 0.5962 -0.0000
vn -0.7334 0.5962 -0.3265
vn -0.8688 -0.3093 -0.3868
vn -0.0000 -1.0000 0.0000
vn -0.8087 -0.5882 -0.0000
vn -0.7388 -0.5882 -0.3289
vn -0.3930 -0.8093 -0.4365
vn -0.2066 -0.9512 -0.2294
vn -0.5372 0.5962 -0.5966
vn -0.6363 -0.3093 -0.7067
vn -0.5411 -0.5882 -0.6010
vn -0.2499 -0.5882 -0.7691
vn -0.1815 -0.8093 -0.5586
vn -0.0954 -0.9512 -0.2936
vn -0.2481 0.5962 -0.7635
vn -0.2939 -0.3093 -0.9044
vn 0.0845 -0.5882 -0.8043
vn 0.0614 -0.8093 -0.5842
vn 0.0323 -0.9512 -0.3070
vn 0.0839 0.5962 -0.7984
vn 0.0994 -0.3093 -0.9458
vn 0.1544 -0.9512 -0.2674
vn 0.4755 -0.3093 -0.8236
vn 0.4044 -0.5882 -0.7004
vn 0.2937 -0.8093 -0.5087
vn 0.4014 0.5962 -0.6952
vn 0.6495 0.5962 -0.4719
vn 0.7693 -0.3093 -0.5590
vn 0.2498 -0.9512 -0.1815
vn 0.6543 -0.5882 -0.4754
vn 0.4752 -0.8093 -0.3453
vn 0.5745 -0.8093 -0.1221
vn 0.3020 -0.9512 -0.0642
vn 0.7853 0.5962 -0.1669
vn 0.9302 -0.3093 -0.1977
vn 0.7911 -0.5882 -0.1681
vn 0.5745 -0.8093 0.1221
vn 0.3020 -0.9512 0.0642
vn 0.7853 0.5962 0.1669
vn 0.9302 -0.3093 0.1977
vn 0.7911 -0.5882 0.1681
vn 0.6543 -0.5882 0.4754
vn 0.4752 -0.8093 0.3453
vn 0.2498 -0.9512 0.1815
vn 0.6495 0.5962 0.4719
vn 0.7693 -0.3093 0.5590
vn 0.4755 -0.3093 0.8236
vn 0.4044 -0.5882 0.7004
vn 0.2937 -0.8093 0.5087
vn 0.1544 -0.9512 0.2674
vn 0.4014 0.5962 0.6953
vn 0.0323 -0.9512 0.3070
vn 0.0994 -0.3093 0.9458
vn 0.0845 -0.5882 0.8043
vn 0.0614 -0.8093 0.5842
vn 0.0839 0.5962 0.7984
vn -0.2481 0.5962 0.7635
vn -0.2939 -0.3093 0.9044
vn -0.0954 -0.9512 0.2936
vn -0.2499 -0.5882 0.7692
vn -0.1815 -0.8093 0.5586
vn -0.3930 -0.8093 0.4365
vn -0.2066 -0.9512 0.2294
vn -0.5372 0.5962 0.5966
vn -0.6363 -0.3093 0.7067
vn -0.5411 -0.5882 0.6010
vn -0.7388 -0.5882 0.3289
vn -0.5366 -0.8093 0.2389
vn -0.2820 -0.9512 0.1256
vn -0.7334 0.5962 0.3265
vn -0.8688 -0.3093 0.3868
vn 0.3074 0.9516 0.0000
vn 0.2808 0.9516 0.1250
vn 0.5354 0.8103 0.2384
vn 0.5861 0.8103 -0.0000
vn 0.9513 0.3081 0.0000
vn 0.8691 0.3081 0.3870
vn 0.5304 0.8142 0.2362
vn 0.5806 0.8142 0.0000
vn 0.0000 1.0000 0.0000
vn 0.8081 0.5891 -0.0000
vn 0.7382 0.5891 0.3287
vn 0.2057 0.9516 0.2284
vn 0.3922 0.8103 0.4355
vn 0.6366 0.3081 0.7070
vn 0.3885 0.8142 0.4315
vn 0.5407 0.5891 0.6005
vn 0.1811 0.8103 0.5574
vn 0.2497 0.5891 0.7685
vn 0.0950 0.9516 0.2924
vn 0.2940 0.3081 0.9048
vn 0.1794 0.8142 0.5522
vn -0.0613 0.8103 0.5829
vn -0.0845 0.5891 0.8036
vn -0.0321 0.9516 0.3057
vn -0.0994 0.3081 0.9461
vn -0.0607 0.8142 0.5774
vn -0.1537 0.9516 0.2662
vn -0.4040 0.5891 0.6998
vn -0.4757 0.3081 0.8239
vn -0.2930 0.8103 0.5076
vn -0.2903 0.8142 0.5028
vn -0.7697 0.3081 0.5592
vn -0.4697 0.8142 0.3413
vn -0.2487 0.9516 0.1807
vn -0.6537 0.5891 0.4750
vn -0.4741 0.8103 0.3445
vn -0.3007 0.9516 0.0639
vn -0.5733 0.8102 0.1219
vn -0.9306 0.3081 0.1978
vn -0.5679 0.8142 0.1207
vn -0.7904 0.5891 0.1680
vn -0.3007 0.9516 -0.0639
vn -0.5733 0.8102 -0.1219
vn -0.9306 0.3081 -0.1978
vn -0.5679 0.8142 -0.1207
vn -0.7904 0.5891 -0.1680
vn -0.4741 0.8103 -0.3445
vn -0.6537 0.5891 -0.4750
vn -0.2487 0.9516 -0.1807
vn -0.7697 0.3081 -0.5592
vn -0.4697 0.8142 -0.3413
vn -0.4040 0.5891 -0.6998
vn -0.4757 0.3081 -0.8239
vn -0.2930 0.8103 -0.5076
vn -0.1537 0.9516 -0.2662
vn -0.2903 0.8142 -0.5028
vn -0.0321 0.9516 -0.3057
vn -0.0845 0.5891 -0.8036
vn -0.0994 0.3081 -0.9461
vn -0.0613 0.8103 -0.5829
vn -0.0607 0.8142 -0.5774
vn 0.2940 0.3081 -0.9048
vn 0.1794 0.8142 -0.5522
vn 0.0950 0.9516 -0.2924
vn 0.2497 0.5891 -0.7685
vn 0.1811 0.8103 -0.5574
vn 0.2057 0.9516 -0.2284
vn 0.3922 0.8103 -0.4355
vn 0.6366 0.3081 -0.7070
vn 0.3885 0.8142 -0.4315
vn 0.5407 0.5891 -0.6005
vn 0.5354 0.8103 -0.2384
vn 0.7382 0.5891 -0.3287
vn 0.2808 0.9516 -0.1250
vn 0.8691 0.3081 -0.3870
vn 0.5304 0.8142 -0.2362
usemtl None.004
s 1
f 1/1/1 2/2/2 3/3/3 4/4/4
f 5/5/5 6/6/6 7/7/7 8/8/8
f 9/9/9 1/1/1 4/4/4
f 10/10/10 5/5/5 8/8/8 11/11/11
f 2/2/2 10/12/10 11/13/11 3/3/3
f 4/4/4 3/3/3 12/14/12 13/15/13
f 8/8/8 7/7/7 14/16/14 15/17/15
f 9/9/9 4/4/4 13/15/13
f 11/11/11 8/8/8 15/17/15 16/18/16
f 3/3/3 11/13/11 16/19/16 12/14/12
f 12/14/12 16/19/16 17/20/17 18/21/18
f 13/15/13 12/14/12 18/21/18 19/22/19
f 15/23/15 14/24/14 20/25/20 21/26/21
f 9/9/9 13/15/13 19/22/19
f 16/27/16 15/23/15 21/26/21 17/28/17
f 18/21/18 17/20/17 22/29/22 23/30/23
f 19/22/19 18/21/18 23/30/23 24/31/24
f 21/26/21 20/25/20 25/32/25 26/33/26
f 9/9/9 19/22/19 24/31/24
f 17/28/17 21/26/21 26/33/26 22/34/22
f 9/9/9 24/31/24 27/35/27
f 22/34/22 26/33/26 28/36/28 29/37/29
f 23/30/23 22/29/22 29/38/29 30/39/30
f 24/31/24 23/30/23 30/39/30 27/35/27
f 26/33/26 25/32/25 31/40/31 28/36/28
f 28/36/28 31/40/31 32/41/32 33/42/33
f 9/9/9 27/35/27 34/43/34
f 29/37/29 28/36/28 33/42/33 35/44/35
f 30/39/30 29/38/29 35/45/35 36/46/36
f 27/35/27 30/39/30 36/46/36 34/43/34
f 34/43/34 36/46/36 37/47/37 38/48/38
f 33/49/33 32/50/32 39/51/39 40/52/40
f 9/9/9 34/43/34 38/48/38
f 35/53/35 33/49/33 40/52/40 41/54/41
f 36/46/36 35/45/35 41/55/41 37/47/37
f 38/48/38 37/47/37 42/56/42 43/57/43
f 40/52/40 39/51/39 44/58/44 45/59/45
f 9/9/9 38/48/38 43/57/43
f 41/54/41 40/52/40 45/59/45 46/60/46
f 37/47/37 41/55/41 46/61/46 42/56/42
f 42/56/42 46/61/46 47/62/47 48/63/48
f 43/57/43 42/56/42 48/63/48 49/64/49
f 45/59/45 44/58/44 50/65/50 51/66/51
f 9/9/9 43/57/43 49/64/49
f 46/60/46 45/59/45 51/66/51 47/67/47
f 47/68/47 51/69/51 52/70/52 53/71/53
f 48/63/48 47/62/47 53/72/53 54/73/54
f 49/64/49 48/63/48 54/73/54 55/74/55
f 51/69/51 50/75/50 56/76/56 52/70/52
f 9/9/9 49/64/49 55/74/55
f 9/9/9 55/74/55 57/77/57
f 53/71/53 52/70/52 58/78/58 59/79/59
f 54/73/54 53/72/53 59/80/59 60/81/60
f 55/74/55 54/73/54 60/81/60 57/77/57
f 52/70/52 56/76/56 61/82/61 58/78/58
f 58/78/58 61/82/61 62/83/62 63/84/63
f 9/9/9 57/77/57 64/85/64
f 59/79/59 58/78/58 63/84/63 65/86/65
f 60/81/60 59/80/59 65/87/65 66/88/66
f 57/77/57 60/81/60 66/88/66 64/85/64
f 64/85/64 66/88/66 67/89/67 68/90/68
f 63/84/63 62/83/62 69/91/69 70/92/70
f 9/9/9 64/85/64 68/90/68
f 65/86/65 63/84/63 70/92/70 71/93/71
f 66/88/66 65/87/65 71/94/71 67/89/67
f 67/89/67 71/94/71 72/95/72 73/96/73
f 68/90/68 67/89/67 73/96/73 74/97/74
f 70/98/70 69/99/69 75/100/75 76/101/76
f 9/9/9 68/90/68 74/97/74
f 71/102/71 70/98/70 76/101/76 72/103/72
f 73/96/73 72/95/72 10/12/10 2/2/2
f 74/97/74 73/96/73 2/2/2 1/1/1
f 76/101/76 75/100/75 6/6/6 5/5/5
f 9/9/9 74/97/74 1/1/1
f 72/103/72 76/101/76 5/5/5 10/10/10
f 77/104/77 78/105/78 79/106/79 80/107/80
f 81/108/81 82/109/82 83/110/83 84/111/84
f 85/112/85 78/105/78 77/104/77
f 86/113/86 87/114/87 82/109/82 81/108/81
f 80/107/80 79/106/79 87/115/87 86/116/86
f 78/105/78 88/117/88 89/118/89 79/106/79
f 82/109/82 90/119/90 91/120/91 83/110/83
f 85/112/85 88/117/88 78/105/78
f 87/114/87 92/121/92 90/119/90 82/109/82
f 79/106/79 89/118/89 92/122/92 87/115/87
f 89/118/89 93/123/93 94/124/94 92/122/92
f 88/117/88 95/125/95 93/123/93 89/118/89
f 90/126/90 96/127/96 97/128/97 91/129/91
f 85/112/85 95/125/95 88/117/88
f 92/130/92 94/131/94 96/127/96 90/126/90
f 93/123/93 98/132/98 99/133/99 94/124/94
f 95/125/95 100/134/100 98/132/98 93/123/93
f 96/127/96 101/135/101 102/136/102 97/128/97
f 85/112/85 100/134/100 95/125/95
f 94/131/94 99/137/99 101/135/101 96/127/96
f 85/112/85 103/138/103 100/134/100
f 99/137/99 104/139/104 105/140/105 101/135/101
f 98/132/98 106/141/106 104/142/104 99/133/99
f 100/134/100 103/138/103 106/141/106 98/132/98
f 101/135/101 105/140/105 107/143/107 102/136/102
f 105/140/105 108/144/108 109/145/109 107/143/107
f 85/112/85 110/146/110 103/138/103
f 104/139/104 111/147/111 108/144/108 105/140/105
f 106/141/106 112/148/112 111/149/111 104/142/104
f 103/138/103 110/146/110 112/148/112 106/141/106
f 110/146/110 113/150/113 114/151/114 112/148/112
f 108/152/108 115/153/115 116/154/116 109/155/109
f 85/112/85 113/150/113 110/146/110
f 111/156/111 117/157/117 115/153/115 108/152/108
f 112/148/112 114/151/114 117/158/117 111/149/111
f 113/150/113 118/159/118 119/160/119 114/151/114
f 115/153/115 120/161/120 121/162/121 116/154/116
f 85/112/85 118/159/118 113/150/113
f 117/157/117 122/163/122 120/161/120 115/153/115
f 114/151/114 119/160/119 122/164/122 117/158/117
f 119/160/119 123/165/123 124/166/124 122/164/122
f 118/159/118 125/167/125 123/165/123 119/160/119
f 120/161/120 126/168/126 127/169/127 121/162/121
f 85/112/85 125/167/125 118/159/118
f 122/163/122 124/170/124 126/168/126 120/161/120
f 124/171/124 128/172/128 129/173/129 126/174/126
f 123/165/123 130/175/130 128/176/128 124/166/124
f 125/167/125 131/177/131 130/175/130 123/165/123
f 126/174/126 129/173/129 132/178/132 127/179/127
f 85/112/85 131/177/131 125/167/125
f 85/112/85 133/180/133 131/177/131
f 128/172/128 134/181/134 135/182/135 129/173/129
f 130/175/130 136/183/136 134/184/134 128/176/128
f 131/177/131 133/180/133 136/183/136 130/175/130
f 129/173/129 135/182/135 137/185/137 132/178/132
f 135/182/135 138/186/138 139/187/139 137/185/137
f 85/112/85 140/188/140 133/180/133
f 134/181/134 141/189/141 138/186/138 135/182/135
f 136/183/136 142/190/142 141/191/141 134/184/134
f 133/180/133 140/188/140 142/190/142 136/183/136
f 140/188/140 143/192/143 144/193/144 142/190/142
f 138/186/138 145/194/145 146/195/146 139/187/139
f 85/112/85 143/192/143 140/188/140
f 141/189/141 147/196/147 145/194/145 138/186/138
f 142/190/142 144/193/144 147/197/147 141/191/141
f 144/193/144 148/198/148 149/199/149 147/197/147
f 143/192/143 150/200/150 148/198/148 144/193/144
f 145/201/145 151/202/151 152/203/152 146/204/146
f 85/112/85 150/200/150 143/192/143
f 147/205/147 149/206/149 151/202/151 145/201/145
f 148/198/148 80/107/80 86/116/86 149/199/149
f 150/200/150 77/104/77 80/107/80 148/198/148
f 151/202/151 81/108/81 84/111/84 152/203/152
f 85/112/85 77/104/77 150/200/150
f 149/206/149 86/113/86 81/108/81 151/202/151
f 14/207/14 7/208/7 83/209/83 91/210/91
f 20/211/20 14/207/14 91/210/91 97/212/97
f 25/213/25 20/211/20 97/212/97 102/214/102
f 31/215/31 25/213/25 102/214/102 107/216/107
f 32/217/32 31/215/31 107/216/107 109/218/109
f 39/219/39 32/217/32 109/218/109 116/220/116
f 44/221/44 39/219/39 116/220/116 121/222/121
f 50/223/50 44/221/44 121/222/121 127/224/127
f 56/225/56 50/223/50 127/224/127 132/226/132
f 61/227/61 56/225/56 132/226/132 137/228/137
f 62/229/62 61/227/61 137/228/137 139/230/139
f 69/231/69 62/229/62 139/230/139 146/232/146
f 75/233/75 69/231/69 146/232/146 152/234/152
f 6/235/6 75/233/75 152/234/152 84/236/84
f 7/208/7 6/235/6 84/236/84 83/209/83
o Cube_Cube.001
v 0.272469 -0.000000 0.048316
v 0.272469 0.983137 0.048521
v 0.272469 0.983137 -0.047766
v 0.272469 0.000000 -0.047562
v 0.290214 0.983137 -0.045227
v 0.290214 0.000000 -0.047669
v 0.290214 0.983137 0.045981
v 0.290214 -0.000000 0.048424
v 0.256861 -0.084075 -0.045767
v 0.267511 -0.084075 -0.045767
v 0.267511 -0.084075 0.046522
v 0.256861 -0.084075 0.046522
v 0.288610 1.032958 -0.046445
v 0.288610 1.032958 0.047200
v 0.274074 1.043136 -0.048731
v 0.303035 1.071845 -0.046572
v 0.309104 1.055170 -0.044685
v 0.274074 1.043136 0.049486
v 0.380582 1.076355 0.037830
v 0.380582 1.076355 -0.037074
v 0.452060 1.055170 -0.028782
v 0.452060 1.055170 0.029537
v 0.309104 1.055170 0.045440
v 0.303035 1.071845 0.047327
v 0.458129 1.071845 -0.030839
v 0.458129 1.071845 0.031594
v 0.380582 1.093029 -0.039112
v 0.380582 1.093029 0.039867
v 0.470949 0.983137 -0.023441
v 0.470949 0.983137 0.024196
v 0.472554 1.032958 0.026760
v 0.472554 1.032958 -0.026005
v 0.487089 1.043136 0.027811
v 0.488694 0.983137 0.024196
v 0.488694 0.983137 -0.023441
v 0.487089 1.043136 -0.027056
vt 0.9422 0.0056
vt 0.4022 0.0055
vt 0.4022 0.0584
vt 0.9422 0.0583
vt 0.3416 0.6054
vt 0.3416 0.0654
vt 0.3318 0.0654
vt 0.3318 0.6054
vt 0.4154 0.0647
vt 0.9554 0.0661
vt 0.9554 0.1162
vt 0.4154 0.1175
vt 0.3628 0.0512
vt 0.3628 0.5912
vt 0.3531 0.5912
vt 0.3531 0.0512
vt 0.0819 0.0109
vt 0.0819 0.0050
vt 0.0312 0.0050
vt 0.0312 0.0109
vt 0.9828 0.0654
vt 0.9828 0.1168
vt 0.3503 0.0050
vt 0.3445 0.0050
vt 0.3693 0.0658
vt 0.3693 0.1165
vt 0.3501 0.6515
vt 0.3443 0.6515
vt 0.9884 0.0066
vt 0.9884 0.0573
vt 0.3327 0.0380
vt 0.3407 0.0324
vt 0.3248 0.0166
vt 0.3214 0.0258
vt 0.3693 0.0050
vt 0.3693 0.0589
vt 0.3619 0.6185
vt 0.3539 0.6241
vt 0.2612 0.4144
vt 0.3024 0.4144
vt 0.2978 0.3751
vt 0.2658 0.3751
vt 0.9950 0.0664
vt 0.9950 0.1159
vt 0.2702 0.2687
vt 0.3241 0.2687
vt 0.3229 0.2846
vt 0.2714 0.2846
vt 0.3732 0.6307
vt 0.3699 0.6399
vt 0.0337 0.0251
vt 0.0239 0.0239
vt 0.0239 0.0582
vt 0.0337 0.0571
vt 0.2755 0.3272
vt 0.3188 0.3272
vt 0.3143 0.3698
vt 0.2800 0.3698
vt 0.4124 0.6515
vt 0.4124 0.6424
vt 0.4517 0.6307
vt 0.4550 0.6399
vt 0.2822 0.0142
vt 0.2822 0.0050
vt 0.2396 0.0166
vt 0.2429 0.0258
vt 0.0446 0.2949
vt 0.0446 0.2687
vt 0.0172 0.2673
vt 0.0172 0.2963
vt 0.2421 0.2436
vt 0.2501 0.2492
vt 0.2342 0.2650
vt 0.2308 0.2558
vt 0.2177 0.3310
vt 0.2177 0.3048
vt 0.2507 0.3029
vt 0.2507 0.3330
vt 0.0050 0.0537
vt 0.0147 0.0537
vt 0.0139 0.0264
vt 0.0059 0.0208
vt 0.2412 0.2163
vt 0.2510 0.2163
vt 0.0050 0.2658
vt 0.0050 0.2978
vt 0.2665 0.3008
vt 0.2665 0.3351
vt 0.0251 0.0142
vt 0.0218 0.0050
vt 0.2571 0.4536
vt 0.3066 0.4536
vn -0.6916 0.0586 0.7199
vn -0.6692 0.0031 0.7431
vn -0.6692 0.0031 -0.7431
vn -0.6916 0.0586 -0.7199
vn 0.7435 0.0046 -0.6687
vn 0.7094 -0.0981 -0.6980
vn 0.7435 0.0046 0.6687
vn 0.7094 -0.0981 0.6980
vn -0.6032 -0.5125 -0.6111
vn 0.5091 -0.6787 -0.5293
vn 0.5091 -0.6787 0.5293
vn -0.6032 -0.5125 0.6111
vn 0.6902 -0.2467 -0.6803
vn 0.6902 -0.2467 0.6803
vn -0.5649 0.2628 -0.7822
vn -0.2728 0.5886 -0.7610
vn 0.4327 -0.6036 -0.6697
vn -0.5649 0.2628 0.7822
vn 0.0677 -0.7338 0.6760
vn 0.0677 -0.7338 -0.6760
vn -0.0001 -0.7482 -0.6635
vn -0.0001 -0.7482 0.6635
vn 0.4327 -0.6036 0.6697
vn -0.2728 0.5886 0.7610
vn 0.6610 0.3587 -0.6591
vn 0.6610 0.3587 0.6591
vn 0.0757 0.6507 -0.7555
vn 0.0757 0.6507 0.7555
vn 0.6609 0.3587 0.6592
vn 0.6609 0.3587 -0.6592
vn -0.7126 -0.0168 -0.7014
vn -0.7126 -0.0168 0.7014
vn -0.6287 -0.2970 0.7187
vn -0.6287 -0.2970 -0.7187
vn 0.6341 0.2094 0.7443
vn 0.7021 -0.0210 0.7117
vn 0.7021 -0.0210 -0.7117
vn 0.6341 0.2094 -0.7443
usemtl None.004
s 1
f 153/237/153 154/238/154 155/239/155 156/240/156
f 156/241/156 155/242/155 157/243/157 158/244/158
f 158/245/158 157/246/157 159/247/159 160/248/160
f 160/249/160 159/250/159 154/251/154 153/252/153
f 161/253/161 162/254/162 163/255/163 164/256/164
f 159/247/159 157/246/157 165/257/165 166/258/166
f 163/259/163 160/249/160 153/252/153 164/260/164
f 162/261/162 158/245/158 160/248/160 163/262/163
f 161/263/161 156/241/156 158/244/158 162/264/162
f 164/265/164 153/237/153 156/240/156 161/266/161
f 165/267/165 167/268/167 168/269/168 169/270/169
f 155/239/155 154/238/154 170/271/170 167/272/167
f 154/251/154 159/250/159 166/273/166 170/274/170
f 157/243/157 155/242/155 167/268/167 165/267/165
f 171/275/171 172/276/172 173/277/173 174/278/174
f 166/258/166 165/257/165 169/279/169 175/280/175
f 167/281/167 170/282/170 176/283/176 168/284/168
f 170/274/170 166/273/166 175/285/175 176/286/176
f 173/287/173 177/288/177 178/289/178 174/290/174
f 179/291/179 180/292/180 178/293/181 177/294/182
f 180/295/180 171/296/171 174/297/174 178/298/181
f 172/299/172 179/300/179 177/301/182 173/302/173
f 181/303/183 182/304/184 183/305/185 184/306/186
f 183/307/185 185/308/187 178/309/181 174/310/174
f 186/311/188 187/312/189 188/313/190 185/314/187
f 187/315/189 181/316/183 184/317/186 188/318/190
f 182/319/184 186/320/188 185/308/187 183/307/185
f 184/306/186 183/305/185 174/321/174 173/322/173
f 185/314/187 188/313/190 177/323/182 178/324/181
f 188/318/190 184/317/186 173/325/173 177/326/182
f 169/270/169 168/269/168 179/300/179 172/299/172
f 176/286/176 175/285/175 171/296/171 180/295/180
f 168/284/168 176/283/176 180/292/180 179/291/179
f 175/327/175 169/328/169 172/276/172 171/275/171
