# Blender v2.78 (sub 0) OBJ File: ''
# www.blender.org
mtllib Bench.mtl
o Cylinder.001
v 3.150000 0.723092 1.219135
v 3.150000 0.723092 -1.219136
v 2.916728 0.676691 -1.219136
v 2.916728 0.676691 1.219135
v 2.718970 0.544554 -1.219136
v 2.718970 0.544554 1.219135
v 2.586833 0.346796 -1.219135
v 2.586833 0.346795 1.219135
v 2.540433 0.113524 -1.219135
v 2.540433 0.113524 1.219135
v 2.586833 -0.119747 -1.219135
v 2.586833 -0.119747 1.219135
v 2.718970 -0.317505 -1.219135
v 2.718970 -0.317506 1.219135
v 2.916728 -0.449643 -1.219135
v 2.916728 -0.449643 1.219135
v 3.150000 -0.496044 -1.219135
v 3.150000 -0.496044 1.219135
v 3.383271 -0.449643 -1.219135
v 3.383271 -0.449643 1.219135
v 3.581030 -0.317505 -1.219135
v 3.581030 -0.317506 1.219135
v 3.713167 -0.119747 -1.219135
v 3.713167 -0.119747 1.219135
v 3.759567 0.113524 -1.219135
v 3.759567 0.113524 1.219135
v 3.713167 0.346796 -1.219136
v 3.713167 0.346795 1.219135
v 3.581030 0.544554 -1.219135
v 3.581030 0.544554 1.219135
v 3.150000 0.113524 -1.219135
v 3.383271 0.676691 -1.219135
v 3.383271 0.676691 1.219135
v 3.150000 0.113524 1.219135
v -3.150000 0.723092 1.219136
v -2.916728 0.676691 1.219136
v -2.916728 0.676691 -1.219135
v -3.150000 0.723092 -1.219135
v -2.718970 0.544554 1.219136
v -2.718970 0.544554 -1.219135
v -2.586833 0.346796 1.219136
v -2.586833 0.346796 -1.219135
v -2.540433 0.113524 1.219135
v -2.540433 0.113524 -1.219135
v -2.586833 -0.119747 1.219136
v -2.586833 -0.119747 -1.219135
v -2.718970 -0.317505 1.219136
v -2.718970 -0.317505 -1.219135
v -2.916728 -0.449643 1.219135
v -2.916728 -0.449642 -1.219135
v -3.150000 -0.496043 1.219135
v -3.150000 -0.496043 -1.219135
v -3.383271 -0.449643 1.219135
v -3.383271 -0.449643 -1.219135
v -3.581030 -0.317505 1.219136
v -3.581030 -0.317505 -1.219135
v -3.713167 -0.119747 1.219136
v -3.713167 -0.119747 -1.219135
v -3.759567 0.113525 1.219136
v -3.759567 0.113525 -1.219135
v -3.713167 0.346796 1.219136
v -3.713167 0.346796 -1.219135
v -3.581030 0.544554 1.219136
v -3.581030 0.544554 -1.219135
v -3.383271 0.676692 -1.219135
v -3.150000 0.113524 -1.219135
v -3.383271 0.676692 1.219136
v -3.150000 0.113524 1.219135
vt 0.4819 0.7599
vt 0.2353 0.7599
vt 0.2353 0.7363
vt 0.4819 0.7363
vt 0.4695 0.2008
vt 0.4695 0.4474
vt 0.4828 0.4474
vt 0.4828 0.2008
vt 0.5028 0.4474
vt 0.5028 0.2008
vt 0.5264 0.4474
vt 0.5264 0.2008
vt 0.5500 0.4474
vt 0.5500 0.2008
vt 0.5700 0.4474
vt 0.5700 0.2008
vt 0.2814 0.6354
vt 0.5280 0.6354
vt 0.5280 0.6154
vt 0.2814 0.6154
vt 0.5280 0.5918
vt 0.2814 0.5918
vt 0.5280 0.5682
vt 0.2814 0.5682
vt 0.5280 0.5482
vt 0.2814 0.5482
vt 0.5347 0.7007
vt 0.5347 0.4541
vt 0.5547 0.4541
vt 0.5547 0.7007
vt 0.5783 0.4541
vt 0.5783 0.7007
vt 0.6019 0.4541
vt 0.6019 0.7007
vt 0.6219 0.4541
vt 0.6219 0.7007
vt 0.5950 0.2188
vt 0.6386 0.2624
vt 0.6386 0.2008
vt 0.6150 0.2055
vt 0.4819 0.8035
vt 0.2353 0.8035
vt 0.2353 0.7835
vt 0.4819 0.7835
vt 0.6795 0.4499
vt 0.6559 0.3929
vt 0.7129 0.4165
vt 0.6995 0.4365
vt 0.6559 0.4546
vt 0.6323 0.4499
vt 0.5989 0.4165
vt 0.6123 0.4365
vt 0.5989 0.3693
vt 0.5942 0.3929
vt 0.6323 0.3360
vt 0.6123 0.3493
vt 0.6795 0.3360
vt 0.6559 0.3313
vt 0.7129 0.3693
vt 0.6995 0.3493
vt 0.7175 0.3929
vt 0.5770 0.2624
vt 0.5817 0.2388
vt 0.5950 0.3060
vt 0.5817 0.2860
vt 0.6386 0.3241
vt 0.6150 0.3194
vt 0.6822 0.3060
vt 0.6622 0.3194
vt 0.7003 0.2624
vt 0.6956 0.2860
vt 0.6822 0.2188
vt 0.6956 0.2388
vt 0.6622 0.2055
vt 0.5280 0.6858
vt 0.5280 0.7094
vt 0.2814 0.7094
vt 0.2814 0.6858
vt 0.5280 0.7294
vt 0.2814 0.7294
vt 0.3686 0.4474
vt 0.3486 0.4474
vt 0.3486 0.2008
vt 0.3686 0.2008
vt 0.3250 0.4474
vt 0.3250 0.2008
vt 0.3014 0.4474
vt 0.3014 0.2008
vt 0.2814 0.4474
vt 0.2814 0.2008
vt 0.2814 0.4541
vt 0.2814 0.4741
vt 0.5280 0.4741
vt 0.5280 0.4541
vt 0.2814 0.4977
vt 0.5280 0.4977
vt 0.2814 0.5213
vt 0.5280 0.5213
vt 0.2814 0.5413
vt 0.5280 0.5413
vt 0.4626 0.2008
vt 0.4426 0.2008
vt 0.4426 0.4474
vt 0.4626 0.4474
vt 0.4190 0.2008
vt 0.4190 0.4474
vt 0.3954 0.2008
vt 0.3954 0.4474
vt 0.3754 0.2008
vt 0.3754 0.4474
vt 0.7340 0.4760
vt 0.7140 0.4627
vt 0.6904 0.4580
vt 0.6904 0.5196
vt 0.5280 0.6422
vt 0.5280 0.6622
vt 0.2814 0.6622
vt 0.2814 0.6422
vt 0.6668 0.7071
vt 0.6468 0.6937
vt 0.6335 0.6737
vt 0.6904 0.6501
vt 0.7140 0.7071
vt 0.6904 0.7118
vt 0.7474 0.6737
vt 0.7340 0.6937
vt 0.7474 0.6265
vt 0.7521 0.6501
vt 0.7140 0.5932
vt 0.7340 0.6065
vt 0.6668 0.5932
vt 0.6904 0.5885
vt 0.6335 0.6265
vt 0.6468 0.6065
vt 0.6288 0.6501
vt 0.7521 0.5196
vt 0.7474 0.4960
vt 0.7340 0.5632
vt 0.7474 0.5432
vt 0.6904 0.5813
vt 0.7140 0.5766
vt 0.6468 0.5632
vt 0.6668 0.5766
vt 0.6288 0.5196
vt 0.6335 0.5432
vt 0.6468 0.4760
vt 0.6335 0.4960
vt 0.6668 0.4627
vn 0.0000 1.0000 0.0000
vn -0.3827 0.9239 0.0000
vn -0.7071 0.7071 0.0000
vn -0.9239 0.3827 0.0000
vn -1.0000 0.0000 0.0000
vn -0.9239 -0.3827 -0.0000
vn -0.8315 -0.5556 -0.0000
vn -0.5556 -0.8315 -0.0000
vn -0.3827 -0.9239 -0.0000
vn 0.0000 -1.0000 -0.0000
vn 0.3827 -0.9239 -0.0000
vn 0.5556 -0.8315 -0.0000
vn 0.8315 -0.5556 -0.0000
vn 0.9239 -0.3827 -0.0000
vn 1.0000 0.0000 0.0000
vn 0.9239 0.3827 0.0000
vn 0.7071 0.7071 0.0000
vn 0.0000 -0.0000 -1.0000
vn 0.3827 0.9239 0.0000
vn 0.0000 -0.0000 1.0000
usemtl None
s 1
f 1/1/1 2/2/1 3/3/2 4/4/2
f 4/5/2 3/6/2 5/7/3 6/8/3
f 6/8/3 5/7/3 7/9/4 8/10/4
f 8/10/4 7/9/4 9/11/5 10/12/5
f 10/12/5 9/11/5 11/13/6 12/14/6
f 12/14/6 11/13/6 13/15/7 14/16/7
f 14/17/8 13/18/8 15/19/9 16/20/9
f 16/20/9 15/19/9 17/21/10 18/22/10
f 18/22/10 17/21/10 19/23/11 20/24/11
f 20/24/11 19/23/11 21/25/12 22/26/12
f 22/27/13 21/28/13 23/29/14 24/30/14
f 24/30/14 23/29/14 25/31/15 26/32/15
f 26/32/15 25/31/15 27/33/16 28/34/16
f 28/34/16 27/33/16 29/35/17 30/36/17
f 29/37/18 31/38/18 2/39/18 32/40/18
f 30/41/17 29/42/17 32/43/19 33/44/19
f 33/44/19 32/43/19 2/2/1 1/1/1
f 33/45/20 34/46/20 28/47/20 30/48/20
f 33/45/20 1/49/20 4/50/20 34/46/20
f 8/51/20 34/46/20 4/50/20 6/52/20
f 12/53/20 34/46/20 8/51/20 10/54/20
f 16/55/20 34/46/20 12/53/20 14/56/20
f 20/57/20 34/46/20 16/55/20 18/58/20
f 24/59/20 34/46/20 20/57/20 22/60/20
f 28/47/20 34/46/20 24/59/20 26/61/20
f 25/62/18 31/38/18 29/37/18 27/63/18
f 21/64/18 31/38/18 25/62/18 23/65/18
f 17/66/18 31/38/18 21/64/18 19/67/18
f 13/68/18 31/38/18 17/66/18 15/69/18
f 9/70/18 31/38/18 13/68/18 11/71/18
f 5/72/18 31/38/18 9/70/18 7/73/18
f 2/39/18 31/38/18 5/72/18 3/74/18
f 35/75/1 36/76/19 37/77/19 38/78/1
f 36/76/19 39/79/17 40/80/17 37/77/19
f 39/81/17 41/82/16 42/83/16 40/84/17
f 41/82/16 43/85/15 44/86/15 42/83/16
f 43/85/15 45/87/14 46/88/14 44/86/15
f 45/87/14 47/89/13 48/90/13 46/88/14
f 47/91/12 49/92/11 50/93/11 48/94/12
f 49/92/11 51/95/10 52/96/10 50/93/11
f 51/95/10 53/97/9 54/98/9 52/96/10
f 53/97/9 55/99/8 56/100/8 54/98/9
f 55/101/7 57/102/6 58/103/6 56/104/7
f 57/102/6 59/105/5 60/106/5 58/103/6
f 59/105/5 61/107/4 62/108/4 60/106/5
f 61/107/4 63/109/3 64/110/3 62/108/4
f 64/111/18 65/112/18 38/113/18 66/114/18
f 63/115/3 67/116/2 65/117/2 64/118/3
f 67/116/2 35/75/1 38/78/1 65/117/2
f 67/119/20 63/120/20 61/121/20 68/122/20
f 67/119/20 68/122/20 36/123/20 35/124/20
f 41/125/20 39/126/20 36/123/20 68/122/20
f 45/127/20 43/128/20 41/125/20 68/122/20
f 49/129/20 47/130/20 45/127/20 68/122/20
f 53/131/20 51/132/20 49/129/20 68/122/20
f 57/133/20 55/134/20 53/131/20 68/122/20
f 61/121/20 59/135/20 57/133/20 68/122/20
f 60/136/18 62/137/18 64/111/18 66/114/18
f 56/138/18 58/139/18 60/136/18 66/114/18
f 52/140/18 54/141/18 56/138/18 66/114/18
f 48/142/18 50/143/18 52/140/18 66/114/18
f 44/144/18 46/145/18 48/142/18 66/114/18
f 40/146/18 42/147/18 44/144/18 66/114/18
f 38/113/18 37/148/18 40/146/18 66/114/18
o Cylinder
v 0.000000 0.000000 -0.000000
v 2.542581 0.000000 -0.000000
v 2.533042 0.047956 0.241090
v 0.000000 0.047956 0.241090
v 3.402766 1.212044 0.241090
v 4.410000 1.212044 0.241090
v 4.410000 1.260000 0.000000
v 3.402766 1.260000 0.000000
v 4.410000 1.212044 -0.241090
v 3.402766 1.212044 -0.241090
v 0.000000 0.047956 -0.241090
v 2.533042 0.047956 -0.241091
v 3.402766 1.075477 0.445477
v 4.410000 1.075477 0.445477
v 0.000000 0.184523 -0.445477
v 2.534123 0.184523 -0.445477
v 3.402766 0.871091 0.582044
v 4.410000 0.871091 0.582044
v 0.000000 0.388909 -0.582044
v 2.590871 0.388909 -0.582044
v 0.000000 0.630000 0.630000
v 2.908910 0.695568 0.616958
v 2.914366 0.871091 0.582044
v 0.000000 0.871091 0.582044
v 0.000000 0.630000 -0.630000
v 2.908910 0.695568 -0.616958
v 0.000000 0.388909 0.582044
v 2.590871 0.388909 0.582044
v 0.000000 0.871090 -0.582044
v 2.914366 0.871090 -0.582044
v 0.000000 0.184523 0.445477
v 2.534123 0.184523 0.445477
v 3.402766 1.075478 -0.445477
v 4.410000 1.075478 -0.445477
v 4.410000 0.871090 -0.582044
v 3.402766 0.871090 -0.582044
v 3.766958 0.047956 0.241090
v 4.410000 0.047956 0.241090
v 4.410000 0.184523 0.445477
v 3.765877 0.184523 0.445477
v 3.766958 0.047956 -0.241091
v 3.757419 0.000000 -0.000000
v 3.765877 0.184523 -0.445477
v 4.410000 0.184523 -0.445477
v 4.410000 0.047956 -0.241090
v 4.410000 0.000000 -0.000000
v 3.150000 0.743524 -0.607418
v 3.150000 0.743524 0.607419
v 3.391090 0.695569 -0.616958
v 4.410000 0.630000 -0.630000
v 4.410000 0.388909 -0.582044
v 3.709129 0.388909 -0.582044
v 4.410000 0.388909 0.582044
v 3.709129 0.388909 0.582044
v 3.391090 0.695568 0.616958
v 4.410000 0.630000 0.630000
v 0.000000 1.212044 -0.241090
v 2.914366 1.212044 -0.241090
v 2.914366 1.075478 -0.445477
v 0.000000 1.075478 -0.445477
v 2.914366 1.075477 0.445477
v 0.000000 1.075477 0.445477
v 2.914366 1.212044 0.241090
v 0.000000 1.212044 0.241090
v 0.000000 1.260000 0.000000
v 2.914366 1.260000 0.000000
v 3.158566 1.212044 -0.241090
v 3.158566 1.075478 -0.445477
v 3.158566 0.871090 -0.582044
v 3.158566 0.871091 0.582044
v 3.158566 1.075477 0.445477
v 3.158566 1.212044 0.241090
v 3.158566 1.260000 0.000000
v 4.410000 0.630000 0.000000
v -2.533042 0.047956 0.241091
v -2.542581 0.000000 -0.000000
v -3.402766 1.212044 0.241090
v -3.402766 1.260000 0.000000
v -4.410000 1.260001 0.000001
v -4.410000 1.212044 0.241091
v -3.402766 1.212044 -0.241090
v -4.410000 1.212044 -0.241090
v -2.533042 0.047956 -0.241090
v -3.402766 1.075478 0.445477
v -4.410000 1.075478 0.445477
v -2.534123 0.184523 -0.445477
v -3.402766 0.871091 0.582044
v -4.410000 0.871091 0.582044
v -2.590871 0.388910 -0.582044
v -2.914366 0.871091 0.582044
v -2.908910 0.695568 0.616958
v -2.908910 0.695569 -0.616958
v -2.590871 0.388910 0.582044
v -2.914366 0.871091 -0.582044
v -2.534123 0.184523 0.445477
v -3.402766 1.075478 -0.445477
v -3.402766 0.871091 -0.582044
v -4.410000 0.871091 -0.582044
v -4.410000 1.075478 -0.445477
v -3.766958 0.047956 0.241091
v -3.765877 0.184523 0.445477
v -4.410000 0.184523 0.445477
v -4.410000 0.047956 0.241091
v -3.757419 0.000000 -0.000000
v -3.766958 0.047956 -0.241090
v -3.765877 0.184523 -0.445477
v -4.410000 0.047956 -0.241090
v -4.410000 0.184523 -0.445477
v -4.410000 0.000001 -0.000000
v -3.150000 0.743524 0.607419
v -3.150000 0.743524 -0.607418
v -3.391090 0.695569 -0.616957
v -3.709129 0.388910 -0.582044
v -4.410000 0.388910 -0.582044
v -4.410000 0.630001 -0.629999
v -3.709129 0.388910 0.582044
v -4.410000 0.388910 0.582044
v -3.391090 0.695568 0.616958
v -4.410000 0.630000 0.630001
v -2.914366 1.075478 -0.445477
v -2.914366 1.212044 -0.241090
v -2.914366 1.075477 0.445477
v -2.914366 1.212044 0.241090
v -2.914366 1.260000 0.000000
v -3.158566 1.212044 -0.241090
v -3.158566 1.075478 -0.445477
v -3.158566 0.871091 -0.582044
v -3.158566 0.871091 0.582044
v -3.158566 1.075478 0.445477
v -3.158566 1.212044 0.241090
v -3.158566 1.260000 0.000000
v -4.410000 0.630001 0.000001
vt 0.2286 0.4311
vt 0.2286 0.1739
vt 0.2042 0.1749
vt 0.2042 0.4311
vt 0.0744 0.7952
vt 0.0744 0.8971
vt 0.0501 0.8971
vt 0.0501 0.7952
vt 0.0257 0.8971
vt 0.0257 0.7952
vt 0.2529 0.4311
vt 0.2529 0.1749
vt 0.0951 0.7952
vt 0.0951 0.8971
vt 0.2736 0.4311
vt 0.2736 0.1748
vt 0.8931 0.0744
vt 0.9950 0.0744
vt 0.9950 0.0951
vt 0.8931 0.0951
vt 0.5489 0.1723
vt 0.2869 0.1723
vt 0.2926 0.1930
vt 0.5489 0.1930
vt 0.5489 0.0501
vt 0.8432 0.0567
vt 0.8437 0.0744
vt 0.5489 0.0744
vt 0.5489 0.1479
vt 0.2547 0.1413
vt 0.5489 0.0257
vt 0.8110 0.0257
vt 0.5489 0.1236
vt 0.2542 0.1236
vt 0.5489 0.0050
vt 0.8053 0.0050
vt 0.2048 0.1029
vt 0.1029 0.1029
vt 0.1029 0.1236
vt 0.2048 0.1236
vt 0.1835 0.1748
vt 0.1835 0.4311
vt 0.0050 0.8971
vt 0.0050 0.7952
vt 0.1064 0.8091
vt 0.2242 0.8091
vt 0.2277 0.7769
vt 0.1029 0.7769
vt 0.1423 0.2821
vt 0.1423 0.2333
vt 0.1561 0.2127
vt 0.1768 0.1989
vt 0.1768 0.3166
vt 0.1561 0.3028
vt 0.7454 0.4501
vt 0.7454 0.3850
vt 0.7248 0.3850
vt 0.7248 0.4502
vt 0.1374 0.4234
vt 0.1374 0.4721
vt 0.1422 0.4477
vt 0.8149 0.4502
vt 0.8149 0.3850
vt 0.7942 0.3850
vt 0.7942 0.4501
vt 0.7698 0.4510
vt 0.7698 0.3850
vt 0.2267 0.7525
vt 0.1039 0.7525
vt 0.2059 0.1413
vt 0.1029 0.1479
vt 0.1029 0.1723
vt 0.1738 0.1723
vt 0.9299 0.0050
vt 0.9950 0.0050
vt 0.9950 0.0257
vt 0.9241 0.0257
vt 0.1029 0.1930
vt 0.1680 0.1930
vt 0.2277 0.7281
vt 0.1029 0.7281
vt 0.1029 0.3889
vt 0.1029 0.5066
vt 0.1236 0.4928
vt 0.1236 0.4027
vt 0.2242 0.6960
vt 0.1064 0.6960
vt 0.9950 0.0501
vt 0.8919 0.0567
vt 0.1374 0.2577
vt 0.0257 0.4511
vt 0.0257 0.7458
vt 0.0050 0.7458
vt 0.0050 0.4511
vt 0.5489 0.1029
vt 0.2542 0.1029
vt 0.8437 0.0951
vt 0.5489 0.0951
vt 0.0951 0.4511
vt 0.0951 0.7458
vt 0.0744 0.7458
vt 0.0744 0.4511
vt 0.0501 0.4511
vt 0.0501 0.7458
vt 0.0257 0.7705
vt 0.0050 0.7705
vt 0.2295 0.1029
vt 0.2295 0.1236
vt 0.8684 0.0744
vt 0.8684 0.0951
vt 0.0951 0.7705
vt 0.0744 0.7705
vt 0.0501 0.7705
vt 0.8676 0.0615
vt 0.2303 0.1365
vt 0.8234 0.7635
vt 0.8186 0.7879
vt 0.8047 0.8086
vt 0.7597 0.7635
vt 0.7841 0.8224
vt 0.7597 0.8272
vt 0.7353 0.8224
vt 0.7146 0.8086
vt 0.7008 0.7879
vt 0.6960 0.7635
vt 0.7008 0.7391
vt 0.7146 0.7185
vt 0.7353 0.7047
vt 0.7597 0.6998
vt 0.7841 0.7047
vt 0.8047 0.7185
vt 0.8186 0.7391
vt 0.2042 0.6873
vt 0.2286 0.6883
vt 0.0744 0.1069
vt 0.0501 0.1069
vt 0.0501 0.0050
vt 0.0744 0.0050
vt 0.0257 0.1069
vt 0.0257 0.0050
vt 0.2529 0.6873
vt 0.0951 0.1069
vt 0.0951 0.0050
vt 0.2736 0.6874
vt 0.2048 0.0744
vt 0.2048 0.0951
vt 0.1029 0.0951
vt 0.1029 0.0744
vt 0.8053 0.1930
vt 0.8110 0.1723
vt 0.2542 0.0744
vt 0.2547 0.0567
vt 0.8432 0.1413
vt 0.2869 0.0257
vt 0.8437 0.1236
vt 0.2926 0.0050
vt 0.8931 0.1029
vt 0.8931 0.1236
vt 0.9950 0.1236
vt 0.9950 0.1029
vt 0.1835 0.6874
vt 0.0050 0.1069
vt 0.0050 0.0050
vt 0.5383 0.7113
vt 0.5347 0.7435
vt 0.6595 0.7435
vt 0.6560 0.7113
vt 0.1374 0.2928
vt 0.1236 0.2722
vt 0.1029 0.2584
vt 0.1029 0.3761
vt 0.1236 0.3623
vt 0.1374 0.3416
vt 0.7742 0.5491
vt 0.7535 0.5490
vt 0.7535 0.6142
vt 0.7742 0.6142
vt 0.1384 0.4069
vt 0.1336 0.3825
vt 0.1384 0.3581
vt 0.8437 0.5490
vt 0.8230 0.5491
vt 0.8230 0.6142
vt 0.8437 0.6142
vt 0.7986 0.5482
vt 0.7986 0.6142
vt 0.5357 0.7679
vt 0.6586 0.7679
vt 0.8919 0.1413
vt 0.9241 0.1723
vt 0.9950 0.1723
vt 0.9950 0.1479
vt 0.1680 0.0050
vt 0.1738 0.0257
vt 0.1029 0.0257
vt 0.1029 0.0050
vt 0.9299 0.1930
vt 0.9950 0.1930
vt 0.5347 0.7923
vt 0.6595 0.7923
vt 0.1729 0.4414
vt 0.1523 0.4275
vt 0.1523 0.3374
vt 0.1729 0.3236
vt 0.5383 0.8244
vt 0.6560 0.8244
vt 0.2059 0.0567
vt 0.1029 0.0501
vt 0.1422 0.3172
vt 0.0050 0.1563
vt 0.0257 0.1563
vt 0.8437 0.1029
vt 0.2542 0.0951
vt 0.0744 0.1563
vt 0.0951 0.1563
vt 0.0501 0.1563
vt 0.0257 0.1316
vt 0.0050 0.1316
vt 0.8684 0.1029
vt 0.8684 0.1236
vt 0.2295 0.0744
vt 0.2295 0.0951
vt 0.0951 0.1316
vt 0.0744 0.1316
vt 0.0501 0.1316
vt 0.2303 0.0615
vt 0.8676 0.1365
vt 0.6998 0.3144
vt 0.7635 0.3144
vt 0.7185 0.2693
vt 0.7047 0.2900
vt 0.7635 0.2507
vt 0.7391 0.2555
vt 0.8086 0.2693
vt 0.7879 0.2555
vt 0.8272 0.3144
vt 0.8224 0.2900
vt 0.8086 0.3595
vt 0.8224 0.3388
vt 0.7635 0.3781
vt 0.7879 0.3733
vt 0.7185 0.3595
vt 0.7391 0.3733
vt 0.7047 0.3388
vn -0.0000 -1.0000 -0.0000
vn 0.0000 -0.9239 0.3827
vn 0.0000 0.9239 0.3827
vn 0.0000 1.0000 0.0000
vn 0.0000 0.9239 -0.3827
vn -0.0000 -0.9239 -0.3827
vn 0.0000 0.7071 0.7071
vn -0.0000 -0.7071 -0.7071
vn -0.0001 -0.7071 -0.7071
vn 0.0000 0.3827 0.9239
vn -0.0000 -0.3624 -0.9320
vn 0.0021 -0.3624 -0.9320
vn -0.0000 0.0219 0.9998
vn 0.0014 0.0805 0.9968
vn -0.0000 0.0219 -0.9998
vn 0.0014 0.0805 -0.9968
vn 0.0000 -0.3624 0.9320
vn 0.0021 -0.3624 0.9320
vn -0.0000 0.3827 -0.9239
vn -0.0000 -0.7071 0.7071
vn 0.0000 0.7071 -0.7071
vn 0.6941 -0.7199 -0.0000
vn 0.9998 -0.0190 0.0000
vn 0.9727 -0.2322 0.0000
vn 0.0001 -0.7071 0.7071
vn -0.9998 -0.0190 0.0000
vn -0.9808 0.1951 0.0000
vn 0.1951 -0.9808 -0.0000
vn -0.0046 0.0787 -0.9969
vn -0.0068 0.0193 -0.9998
vn -0.0069 -0.3648 -0.9310
vn -0.0069 -0.3649 -0.9310
vn -0.0069 -0.3649 0.9310
vn -0.1951 -0.9808 -0.0000
vn -0.9727 -0.2322 0.0000
vn -0.6941 -0.7199 -0.0000
vn -0.0068 0.0193 0.9998
vn -0.0046 0.0787 0.9969
vn 0.9808 0.1951 0.0000
vn -0.0000 0.1951 0.9808
vn 0.0000 0.1951 -0.9808
vn 1.0000 -0.0000 0.0000
vn -0.0021 -0.3624 -0.9320
vn -0.0014 0.0805 0.9968
vn -0.0014 0.0805 -0.9968
vn -0.0021 -0.3624 0.9320
vn 0.0046 0.0787 -0.9969
vn 0.0069 -0.3649 -0.9310
vn 0.0069 -0.3648 -0.9310
vn 0.0068 0.0193 -0.9998
vn 0.0069 -0.3649 0.9310
vn 0.0046 0.0787 0.9969
vn 0.0068 0.0193 0.9998
vn -1.0000 0.0000 0.0000
usemtl None
s 1
f 69/149/21 70/150/21 71/151/22 72/152/22
f 73/153/23 74/154/23 75/155/24 76/156/24
f 76/156/24 75/155/24 77/157/25 78/158/25
f 79/159/26 80/160/26 70/150/21 69/149/21
f 81/161/27 82/162/27 74/154/23 73/153/23
f 83/163/28 84/164/29 80/160/26 79/159/26
f 85/165/30 86/166/30 82/167/27 81/168/27
f 87/169/31 88/170/32 84/171/29 83/172/28
f 89/173/33 90/174/34 91/175/30 92/176/30
f 93/177/35 94/178/36 88/170/32 87/169/31
f 95/179/37 96/180/38 90/174/34 89/173/33
f 97/181/39 98/182/39 94/178/36 93/177/35
f 99/183/40 100/184/40 96/180/38 95/179/37
f 101/185/41 102/186/41 103/187/39 104/188/39
f 72/152/22 71/151/22 100/189/40 99/190/40
f 78/158/25 77/157/25 102/191/41 101/192/41
f 96/193/42 88/194/42 94/195/42 90/196/42
f 71/197/43 80/198/43 84/199/44 88/200/44 96/201/44 100/202/44
f 105/203/22 106/204/22 107/205/40 108/206/45
f 105/207/46 109/208/46 110/209/47
f 111/210/28 112/211/28 113/212/26 109/213/26
f 110/214/21 114/215/21 106/204/22 105/203/22
f 109/213/26 113/212/26 114/215/21 110/214/21
f 90/196/48 94/195/48 115/216/21 116/217/21
f 117/218/49 118/219/50 119/220/51 120/221/52
f 108/222/45 107/223/40 121/224/53 122/225/53
f 120/221/52 119/220/51 112/226/28 111/227/28
f 116/217/21 115/216/21 117/228/54 123/229/54
f 122/230/55 120/231/55 111/232/55 109/208/46 105/207/46 108/233/55
f 123/229/56 117/228/56 120/234/56 122/235/56
f 122/225/53 121/224/53 124/236/57 123/237/58
f 80/198/43 71/197/43 70/238/59
f 125/239/25 126/240/25 127/241/41 128/242/41
f 128/243/41 127/244/41 98/182/39 97/181/39
f 92/176/30 91/175/30 129/245/27 130/246/27
f 130/247/27 129/248/27 131/249/23 132/250/23
f 133/251/24 134/252/24 126/240/25 125/239/25
f 132/250/23 131/249/23 134/252/24 133/251/24
f 135/253/25 78/158/25 101/192/41 136/254/41
f 136/255/41 101/185/41 104/188/39 137/256/39
f 138/257/30 85/165/30 81/168/27 139/258/27
f 139/259/27 81/161/27 73/153/23 140/260/23
f 141/261/24 76/156/24 78/158/25 135/253/25
f 140/260/23 73/153/23 76/156/24 141/261/24
f 131/249/23 140/260/23 141/261/24 134/252/24
f 134/252/24 141/261/24 135/253/25 126/240/25
f 129/248/27 139/259/27 140/260/23 131/249/23
f 91/175/30 138/257/30 139/258/27 129/245/27
f 127/244/41 136/255/41 137/256/39 98/182/39
f 126/240/25 135/253/25 136/254/41 127/241/41
f 91/175/30 90/174/34 116/262/60 138/257/30
f 138/257/30 116/262/60 123/237/58 85/165/30
f 85/165/30 123/237/58 124/236/57 86/166/30
f 117/218/49 104/188/39 103/187/39 118/219/50
f 115/263/61 137/256/39 104/188/39 117/218/49
f 94/178/36 98/182/39 137/256/39 115/263/61
f 75/264/62 74/265/62 82/266/62 142/267/62
f 82/266/62 86/268/62 124/269/62 142/267/62
f 124/269/62 121/270/62 107/271/62 142/267/62
f 107/271/62 106/272/62 114/273/62 142/267/62
f 114/273/62 113/274/62 112/275/62 142/267/62
f 112/275/62 119/276/62 118/277/62 142/267/62
f 118/277/62 103/278/62 102/279/62 142/267/62
f 102/279/62 77/280/62 75/264/62 142/267/62
f 69/149/21 72/152/22 143/281/22 144/282/21
f 145/283/23 146/284/24 147/285/24 148/286/23
f 146/284/24 149/287/25 150/288/25 147/285/24
f 79/159/26 69/149/21 144/282/21 151/289/26
f 152/290/27 145/283/23 148/286/23 153/291/27
f 83/163/28 79/159/26 151/289/26 154/292/28
f 155/293/30 152/294/27 153/295/27 156/296/30
f 87/169/31 83/172/28 154/297/28 157/298/63
f 89/173/33 92/176/30 158/299/30 159/300/64
f 93/177/35 87/169/31 157/298/63 160/301/65
f 95/179/37 89/173/33 159/300/64 161/302/66
f 97/181/39 93/177/35 160/301/65 162/303/39
f 99/183/40 95/179/37 161/302/66 163/304/45
f 164/305/41 165/306/39 166/307/39 167/308/41
f 72/152/22 99/190/40 163/309/45 143/281/22
f 149/287/25 164/310/41 167/311/41 150/288/25
f 161/312/56 159/313/56 160/314/56 157/315/56
f 143/316/46 163/317/55 161/318/55 157/319/55 154/320/55 151/321/46
f 168/322/22 169/323/40 170/324/40 171/325/22
f 168/326/43 172/327/59 173/328/43
f 174/329/29 173/330/26 175/331/26 176/332/28
f 172/333/21 168/322/22 171/325/22 177/334/21
f 173/330/26 172/333/21 177/334/21 175/331/26
f 159/313/54 178/335/21 179/336/21 160/314/54
f 180/337/67 181/338/68 182/339/69 183/340/70
f 169/341/40 184/342/71 185/343/71 170/344/40
f 181/338/68 174/345/29 176/346/28 182/339/69
f 178/335/21 186/347/48 180/348/48 179/336/21
f 184/349/44 169/350/44 168/326/43 173/328/43 174/351/44 181/352/44
f 186/347/42 184/353/42 181/354/42 180/348/42
f 184/342/71 186/355/72 187/356/73 185/343/71
f 151/321/46 144/357/47 143/316/46
f 125/239/25 128/242/41 188/358/41 189/359/25
f 128/243/41 97/181/39 162/303/39 188/360/41
f 92/176/30 130/246/27 190/361/27 158/299/30
f 130/247/27 132/250/23 191/362/23 190/363/27
f 133/251/24 125/239/25 189/359/25 192/364/24
f 132/250/23 133/251/24 192/364/24 191/362/23
f 193/365/25 194/366/41 164/310/41 149/287/25
f 194/367/41 195/368/39 165/306/39 164/305/41
f 196/369/30 197/370/27 152/294/27 155/293/30
f 197/371/27 198/372/23 145/283/23 152/290/27
f 199/373/24 193/365/25 149/287/25 146/284/24
f 198/372/23 199/373/24 146/284/24 145/283/23
f 191/362/23 192/364/24 199/373/24 198/372/23
f 192/364/24 189/359/25 193/365/25 199/373/24
f 190/363/27 191/362/23 198/372/23 197/371/27
f 158/299/30 190/361/27 197/370/27 196/369/30
f 188/360/41 162/303/39 195/368/39 194/367/41
f 189/359/25 188/358/41 194/366/41 193/365/25
f 158/299/30 196/369/30 178/374/60 159/300/64
f 196/369/30 155/293/30 186/355/72 178/374/60
f 155/293/30 156/296/30 187/356/73 186/355/72
f 180/337/67 183/340/70 166/307/39 165/306/39
f 179/375/61 180/337/67 165/306/39 195/368/39
f 160/301/65 179/375/61 195/368/39 162/303/39
f 147/376/74 200/377/74 153/378/74 148/379/74
f 153/378/74 200/377/74 187/380/74 156/381/74
f 187/380/74 200/377/74 170/382/74 185/383/74
f 170/382/74 200/377/74 177/384/74 171/385/74
f 177/384/74 200/377/74 176/386/74 175/387/74
f 176/386/74 200/377/74 183/388/74 182/389/74
f 183/388/74 200/377/74 167/390/74 166/391/74
f 167/390/74 200/377/74 147/376/74 150/392/74
