# Blender v2.78 (sub 0) OBJ File: ''
# www.blender.org
mtllib SURVIVAL PACK.mtl
o Circle.002
v 0.144285 0.744286 0.632152
v 0.000000 0.744286 0.000000
v -0.404277 0.744286 0.506947
v -0.144284 0.744286 0.632152
v 0.584196 0.744286 0.281334
v 0.404277 0.744286 0.506947
v 0.584196 0.744286 -0.281334
v 0.648409 0.744286 0.000000
v 0.404277 0.744286 -0.506947
v 0.144285 0.744286 -0.632152
v -0.144285 0.744286 -0.632152
v -0.404277 0.744286 -0.506947
v -0.584197 0.744286 -0.281334
v -0.648409 0.744286 0.000000
v -0.584196 0.744286 0.281334
vt 0.6113 0.0000
vt 0.5000 0.5000
vt 0.1883 0.0990
vt 0.3887 0.0000
vt 0.9505 0.2775
vt 0.8117 0.0990
vt 0.9505 0.7225
vt 1.0000 0.5000
vt 0.8117 0.9010
vt 0.6113 1.0000
vt 0.3887 1.0000
vt 0.1883 0.9010
vt 0.0495 0.7225
vt 0.0000 0.5000
vt 0.0495 0.2775
vn 0.0000 1.0000 0.0000
usemtl None.001
s off
f 1/1/1 2/2/1 3/3/1 4/4/1
f 5/5/1 2/2/1 1/1/1 6/6/1
f 7/7/1 2/2/1 5/5/1 8/8/1
f 9/9/1 10/10/1 2/2/1 7/7/1
f 11/11/1 12/12/1 2/2/1 10/10/1
f 13/13/1 14/14/1 2/2/1 12/12/1
f 15/15/1 3/3/1 2/2/1 14/14/1
